<mxfile host="app.diagrams.net" modified="2023-09-30T13:30:05.306Z" agent="Mozilla/5.0 (Windows NT 10.0; Win64; x64) AppleWebKit/537.36 (KHTML, like Gecko) Chrome/117.0.0.0 Safari/537.36" version="22.0.0" etag="82K3_9bYdac2rREAwoUA" type="github">
  <diagram name="1 oldal" id="J0RhJsYHLlQuwJroKjkV">
    <mxGraphModel>
      <root>
        <mxCell id="0" />
        <mxCell id="1" parent="0" />
      </root>
    </mxGraphModel>
  </diagram>
</mxfile>
